<?xml version="1.0" encoding="UTF-8"?>
<svg version="1.1" xmlns="http://www.w3.org/2000/svg" width="98" height="96">
<path d="M0 0 C10.20131738 6.94744891 16.1029756 16.20153757 19.0390625 28.2421875 C21.68634035 44.09055754 19.29279539 58.79360105 10.234375 72.20703125 C4.67681861 79.11155264 -2.45060995 83.91293016 -10.8125 86.75 C-11.4725 86.97429687 -12.1325 87.19859375 -12.8125 87.4296875 C-26.80922866 91.29999505 -41.82819851 88.93998244 -54.46875 82.1796875 C-64.63731993 75.97685984 -70.99819619 66.82214199 -74.22583008 55.41967773 C-75.17925318 51.08106701 -75.30228498 46.86649026 -75.25 42.4375 C-75.23755249 41.06392334 -75.23755249 41.06392334 -75.22485352 39.66259766 C-74.8977491 26.46434198 -70.71928054 15.26016099 -61.7109375 5.46484375 C-44.68135564 -10.63202249 -19.69509867 -11.63075422 0 0 Z M-44.4375 6.375 C-53.92700077 18.54963282 -54.06127618 36.07768588 -52.34765625 50.72265625 C-50.55639367 61.14165695 -47.30376771 71.00414961 -38.58984375 77.6015625 C-32.77794928 81.35694047 -27.61038911 82.63397459 -20.8125 81.75 C-14.57288187 79.67012729 -10.83248241 75.24866235 -7.6171875 69.6796875 C-0.31529422 54.58910805 -1.22567281 35.53086973 -5.8125 19.75 C-9.0625699 11.48398889 -13.06834783 5.36353747 -20.8125 0.75 C-30.27108541 -2.4028618 -37.5511564 -0.5113436 -44.4375 6.375 Z " fill="#000000" transform="translate(74.8125,7.25)"/>
</svg>
